<?xml version="1.0" encoding="UTF-8"?>
<!DOCTYPE svg PUBLIC "-//W3C//DTD SVG 1.1//EN" "http://www.w3.org/Graphics/SVG/1.1/DTD/svg11.dtd">
<!-- Creator: CorelDRAW X6 -->
<svg xmlns="http://www.w3.org/2000/svg" xml:space="preserve" width="155.087mm" height="36.7567mm" version="1.1" style="shape-rendering:geometricPrecision; text-rendering:geometricPrecision; image-rendering:optimizeQuality; fill-rule:evenodd; clip-rule:evenodd"
viewBox="0 0 13907 3296"
 xmlns:xlink="http://www.w3.org/1999/xlink">
 <defs>
  <style type="text/css">
   <![CDATA[
    .fil0 {fill:#3E5464}
    .fil1 {fill:#333333;fill-rule:nonzero}
   ]]>
  </style>
 </defs>
 <g id="Layer_x0020_1">
  <metadata id="CorelCorpID_0Corel-Layer"/>
  <path class="fil0" d="M1993 1587c-1,10 -2,20 -2,31l0 0c0,8 -1,18 -1,30l0 0c0,9 0,19 1,29 0,7 1,17 2,29l0 0 0 1 0 0 0 1 0 1 0 0 0 2 0 1 0 0 0 1c2,23 6,46 10,69 5,23 11,46 18,68 7,22 15,44 25,66 9,21 20,42 31,62l0 0 0 0 2 3 0 0 0 0c42,74 97,136 160,187 65,52 139,92 216,116 78,25 161,35 245,30 80,-5 161,-25 238,-60l65 -30 68 -32 13 147 2 19c0,6 1,14 1,20l1 22 0 18c0,118 -24,231 -66,335 -45,108 -110,204 -190,285 -80,80 -177,146 -285,190 -103,43 -216,66 -335,66 -45,0 -89,-4 -134,-11 -45,-7 -89,-17 -131,-31 -44,-14 -85,-31 -125,-50 -40,-20 -78,-43 -116,-69l-120 -85 61 -43 58 -41c69,-49 126,-109 171,-176 46,-69 78,-146 96,-227 18,-80 21,-164 8,-246 -12,-79 -39,-158 -82,-231l0 0c-13,-22 -26,-42 -39,-61l0 0c-14,-19 -30,-38 -46,-56 -17,-18 -33,-35 -50,-50 -15,-14 -32,-27 -48,-39l-7 -5 0 0 -2 -1 0 0 -1 0 0 0 -1 0 0 0c-10,-7 -18,-13 -25,-17 -9,-6 -17,-11 -25,-15 -7,-4 -16,-9 -27,-15 -10,-5 -19,-10 -27,-13l-12 -6 0 0c-20,-9 -40,-16 -61,-23 -20,-7 -41,-12 -63,-17 -24,-5 -48,-9 -71,-12 -23,-2 -47,-4 -73,-4 -85,0 -167,16 -241,45 -77,30 -148,74 -209,130 -61,55 -111,122 -148,197 -36,72 -59,152 -67,236l-6 71 -7 75 -68 -31 -65 -30c0,0 -16,-7 -18,-8 -1,-1 -16,-8 -18,-9 -4,-2 -10,-5 -18,-10 -7,-4 -13,-7 -18,-10l0 0c-103,-59 -189,-136 -257,-225 -71,-92 -122,-197 -151,-307 -29,-110 -38,-226 -22,-341 14,-106 48,-211 103,-310l0 -1c25,-44 52,-84 83,-124 28,-35 59,-68 92,-98 33,-30 69,-58 106,-82 37,-25 77,-47 118,-66l65 -30 68 -31 7 75 6 71c8,84 31,163 67,236 37,75 88,141 148,197 61,55 131,100 209,130 75,29 156,45 241,45 25,0 50,-1 73,-4 24,-3 47,-6 71,-12 22,-5 44,-11 65,-18 21,-7 42,-15 62,-24l0 0 9 -4 0 0 14 -6 14 -7 0 0c4,-2 8,-4 13,-7l0 0 14 -8 0 0 12 -7 0 0 14 -9 0 0 12 -8 13 -9 0 0 11 -8c17,-13 34,-26 50,-41 16,-15 32,-30 46,-46 16,-18 31,-36 45,-55 14,-19 27,-39 39,-60 42,-72 70,-151 83,-233 13,-82 10,-166 -8,-246 -18,-80 -50,-157 -96,-227 -44,-67 -102,-127 -171,-176l-59 -41 -62 -43 62 -43 59 -41c3,-2 9,-6 16,-11 0,0 16,-10 17,-11 0,0 16,-10 17,-11 0,0 16,-10 17,-10l13 -7 1 0c99,-55 204,-89 310,-103 115,-15 231,-7 341,22 110,29 215,81 307,151 89,68 166,154 225,257l0 0c23,40 43,81 59,122 17,43 30,86 39,129 10,44 16,88 18,133 3,45 2,90 -2,135l-7 71 -7 75 -68 -31 -65 -30c-77,-35 -157,-55 -238,-60 -83,-5 -166,5 -245,30 -78,25 -152,64 -217,116 -59,48 -111,106 -152,174l-7 13c-12,21 -23,42 -33,65 -10,23 -19,46 -26,67 -7,21 -12,42 -17,65 -5,22 -8,44 -10,66l0 0 -1 10z"/>
  <path class="fil1" d="M13907 1211l0 1216 -219 0 0 -1058 -316 0 -39 669c-8,146 -39,251 -91,316 -53,65 -116,97 -189,97 -37,0 -69,-4 -94,-12 -25,-8 -39,-12 -40,-12l0 -97c49,0 92,-23 129,-68 37,-45 59,-120 66,-224l49 -827 744 0z"/>
  <path class="fil1" d="M12249 2452c-55,0 -105,-5 -150,-16 -45,-11 -83,-30 -114,-60 -32,-29 -56,-69 -74,-119 -18,-50 -27,-115 -27,-195 0,-76 9,-139 27,-187 18,-49 43,-87 74,-116 32,-28 70,-48 114,-58 45,-11 94,-16 150,-16 37,0 78,2 122,7 44,5 84,11 122,17l0 -109c0,-55 -6,-100 -18,-135 -12,-35 -30,-62 -52,-81 -23,-19 -51,-33 -84,-40 -33,-7 -71,-11 -113,-11l-243 0 0 -97c37,-13 83,-24 137,-34 54,-10 106,-15 154,-15 73,0 137,6 191,17 54,11 100,32 136,62 36,30 64,72 83,126 19,54 28,124 28,208l0 827 -182 0 -12 -73 -12 0c-31,31 -69,55 -114,72 -45,17 -92,26 -141,26zm243 -620l-170 0c-62,0 -114,16 -156,47 -42,32 -63,93 -63,184 0,49 6,89 17,120 11,32 27,56 46,74 19,18 43,30 69,38 27,7 56,11 86,11 31,0 62,-5 95,-15 32,-10 58,-21 75,-34l0 -426z"/>
  <polygon class="fil1" points="11373,1576 11361,1576 10972,2427 10741,2427 10741,1211 10960,1211 10960,2038 10972,2038 11337,1211 11592,1211 11592,2427 11373,2427 "/>
  <path class="fil1" d="M9791 1284c31,-31 69,-55 114,-72 45,-17 92,-26 141,-26 63,0 120,10 170,30 50,20 92,55 126,103 34,49 60,114 78,195 18,81 27,182 27,304 0,122 -9,223 -27,304 -18,81 -44,146 -78,195 -34,49 -76,83 -126,103 -50,20 -107,30 -170,30 -49,0 -92,-6 -130,-17 -38,-11 -76,-26 -113,-44l0 523 -219 0 0 -1703 182 0 12 73 12 0zm12 973c18,13 43,24 75,34 32,10 64,15 95,15 39,0 74,-7 106,-21 32,-14 58,-39 80,-75 22,-36 39,-86 51,-150 12,-63 18,-144 18,-241 0,-97 -6,-177 -18,-240 -12,-62 -29,-112 -51,-148 -22,-36 -49,-62 -80,-77 -32,-15 -67,-22 -106,-22 -31,0 -62,5 -95,15 -32,10 -58,21 -75,34l0 876z"/>
  <path class="fil1" d="M9317 1819c0,118 -10,218 -29,299 -19,81 -48,146 -86,196 -38,49 -85,85 -141,106 -56,21 -120,32 -193,32 -73,0 -137,-11 -193,-32 -56,-21 -103,-56 -141,-106 -38,-49 -67,-115 -86,-196 -19,-81 -29,-181 -29,-299 0,-118 10,-218 29,-299 19,-81 48,-146 86,-196 38,-49 85,-85 141,-106 56,-21 120,-32 193,-32 73,0 137,11 193,32 56,21 103,56 141,106 38,49 67,115 86,196 19,81 29,181 29,299zm-219 0c0,-97 -6,-178 -19,-242 -13,-64 -30,-115 -51,-153 -21,-38 -45,-65 -73,-80 -28,-15 -57,-23 -88,-23 -31,0 -60,8 -88,23 -28,15 -52,42 -73,80 -21,38 -38,89 -51,153 -13,64 -19,145 -19,242 0,97 6,178 19,242 13,64 30,115 51,153 21,38 45,65 73,80 28,15 57,23 88,23 31,0 60,-8 88,-23 28,-15 52,-42 73,-80 21,-38 38,-89 51,-153 13,-64 19,-145 19,-242z"/>
  <polygon class="fil1" points="7546,1977 7833,1211 8089,1211 8174,2427 7967,2427 7906,1564 7894,1564 7639,2245 7444,2245 7189,1564 7177,1564 7116,2427 6909,2427 6994,1211 7250,1211 7537,1977 "/>
  <path class="fil1" d="M6641 1892l-632 0c0,79 6,146 19,198 13,53 33,95 60,126 27,32 62,54 105,68 43,14 95,21 157,21l243 0 0 97c-37,13 -83,24 -137,34 -54,10 -106,15 -154,15 -91,0 -169,-10 -234,-30 -65,-20 -118,-55 -159,-103 -41,-49 -71,-114 -90,-195 -19,-81 -28,-182 -28,-304 0,-122 9,-223 27,-304 18,-81 45,-146 80,-195 36,-49 80,-83 134,-103 54,-20 115,-30 185,-30 70,0 131,10 185,30 54,20 98,55 134,103 36,49 62,114 80,195 18,81 27,182 27,304l0 73zm-219 -146c0,-83 -6,-151 -17,-206 -11,-54 -26,-98 -45,-130 -19,-32 -41,-56 -66,-69 -25,-14 -51,-21 -79,-21 -28,0 -54,7 -79,21 -25,14 -47,37 -66,69 -19,32 -34,76 -45,130 -11,54 -17,123 -17,206l414 0z"/>
  <polygon class="fil1" points="4646,2208 4293,1162 4281,1162 4208,2427 3989,2427 4086,725 4354,725 4750,1892 4760,1892 5156,725 5424,725 5521,2427 5302,2427 5229,1162 5217,1162 4865,2208 "/>
 </g>
</svg>
